<svg xmlns="http://www.w3.org/2000/svg" xml:space="preserve" width="1.70666in" height="1.70666in" version="1.1" style="shape-rendering:geometricPrecision; text-rendering:geometricPrecision; image-rendering:optimizeQuality; fill-rule:evenodd; clip-rule:evenodd" viewBox="0 0 1707 1707" xmlns:xlink="http://www.w3.org/1999/xlink">
 <defs>
  <style type="text/css">
   
    .fil0 {fill:#000002}
   
  </style>
 </defs>
 <g id="Layer_x0020_1">
  <metadata id="CorelCorpID_0Corel-Layer"></metadata>
  <path class="fil0" d="M533 1627c72,0 118,-131 77,-227l-318 0c-96,0 -174,-78 -174,-174l0 -607c0,-96 78,-174 174,-174l67 0c29,-276 282,-475 550,-442 232,26 415,211 439,442l66 0c96,0 174,78 174,174l0 607c0,96 -78,174 -173,174l-319 0c-40,95 3,226 79,227l50 0c53,0 53,80 0,80l-743 0c-53,0 -53,-80 0,-80l51 0zm162 -227c21,76 11,164 -29,227l375 0c-40,-63 -51,-151 -29,-227l-317 0zm719 -80c52,0 94,-42 94,-94l0 -607c0,-52 -42,-94 -94,-94l-64 0c-16,288 -277,502 -553,467 -241,-27 -427,-226 -440,-467l-65 0c-52,0 -94,42 -94,94l0 607c0,52 42,94 94,94 374,0 748,0 1122,0zm-561 -1240c-11,0 -21,1 -32,1 -27,27 -53,81 -72,156 69,5 140,5 208,0 -19,-75 -45,-129 -71,-156 -11,0 -22,-1 -33,-1zm-142 25c-59,22 -111,56 -154,99 33,10 71,18 112,24 11,-47 25,-88 42,-123zm-208 166c-36,54 -59,118 -65,187l202 0c2,-53 6,-104 14,-151 -57,-9 -108,-21 -151,-36zm-65 267c6,68 29,132 65,187 43,-16 94,-28 151,-36 -8,-47 -12,-98 -14,-151l-202 0zm119 253c43,44 95,78 154,99 -17,-35 -31,-76 -42,-122 -41,6 -79,14 -112,23zm264 123c9,1 60,2 65,0 26,-27 52,-81 71,-155 -68,-6 -139,-6 -208,0 19,74 45,128 72,155zm175 -24c58,-21 111,-55 154,-99 -33,-9 -71,-17 -112,-23 -11,46 -26,87 -42,122zm208 -165c35,-55 58,-119 65,-187l-202 0c-2,53 -7,104 -14,151 57,8 108,20 151,36zm65 -267c-7,-69 -30,-133 -65,-187 -43,15 -94,27 -151,36 7,47 12,98 14,151l202 0zm-119 -254c-43,-43 -96,-77 -154,-99 17,35 31,76 42,123 41,-6 79,-14 112,-24zm-177 476c7,-43 12,-91 14,-142l-267 0c2,51 6,99 13,142 78,-7 162,-7 240,0zm14 -222c-2,-52 -7,-99 -14,-142 -78,6 -162,6 -240,0 -7,43 -11,90 -13,142l267 0zm373 740l-1014 0c-52,0 -52,-80 0,-80l1014 0c53,0 53,80 0,80z" id="id_101" style="fill: rgb(240, 200, 105);"></path>
 </g>
</svg>